<?xml version="1.0" encoding="utf-8"?>
<!-- Generator: Adobe Illustrator 23.0.1, SVG Export Plug-In . SVG Version: 6.00 Build 0)  -->
<svg version="1.1" id="portfolio-logo" xmlns="http://www.w3.org/2000/svg" xmlns:xlink="http://www.w3.org/1999/xlink" x="0px"
	 y="0px" viewBox="0 0 103.2 78.4" style="enable-background:new 0 0 103.2 78.4;" xml:space="preserve">
<style type="text/css">
	.st0{fill:#262626;}
</style>
<g>
	<path class="st0" d="M14.2,20.7v-6.5C14.2,6.4,8.3,0,1.1,0C0.7,0,0.4,0,0,0.1v14.2v14.2v35.7C0,72,5.9,78.4,13.1,78.4
		c0.4,0,0.7,0,1.1-0.1V64.1V50V33.7h14.2v-13H14.2z"/>
	<path class="st0" d="M102.9,42.8c-0.1-1.1-1-9.1-7.1-15c-7.2-7-17.5-7.1-21.1-7.1c-10.9-0.1-18.7,4.7-21.3,6.5
		c-1.2-1.1-2.3-1.9-3.1-2.4c-5.8-3.7-12.3-3.9-15.6-4c-1.1,0-2.1,0-2.7,0c0,4.3,0,8.6,0,13c0.7-0.1,6.5-0.4,10.7,3.7
		c2.7,2.6,3.4,5.6,3.5,7.5v23.7c0,5.5,5.9,9.9,13.1,9.9c0.4,0,0.7,0,1.1,0v-9.8v-9.8V46.6c0,0,0,0,0,0c0,0,0-0.1,0-0.1v-1.2
		c0.1-1.8,0.7-5.1,3.5-7.9c4.2-4.2,9.9-4.1,10.7-4.1c0,0,0,0,0,0c0.8,0,1.5,0.1,2.3,0.1c2.2,0.3,5.6,1.2,8.4,4
		c2.7,2.7,3.4,5.8,3.5,7.7v23.4c0,5.5,5.9,9.9,13.1,9.9c0.4,0,0.7,0,1.1,0v-9.9v-9.9c0-2.2,0.1-5.5,0-9.6
		C103.1,45.7,103,44,102.9,42.8z"/>
</g>
</svg>
